<svg width="316" height="80" viewBox="0 0 316 80" fill="none" xmlns="http://www.w3.org/2000/svg">
<path d="M100.267 64.5822V33.663L113.08 64.5822H120.044L132.857 33.663V64.5822H140.657V15.8357H132.022L116.562 53.4401L101.102 15.8357H92.4673V64.5822H100.267Z" fill="#F5F9F0"/>
<path d="M163.659 65C173.965 65 181.486 57.3398 181.486 47.1727C181.486 37.0056 173.965 29.3454 163.659 29.3454C153.353 29.3454 145.832 37.0056 145.832 47.1727C145.832 57.3398 153.353 65 163.659 65ZM163.659 57.6184C157.67 57.6184 153.631 53.2312 153.631 47.1727C153.631 41.1142 157.67 36.727 163.659 36.727C169.648 36.727 173.687 41.1142 173.687 47.1727C173.687 53.2312 169.648 57.6184 163.659 57.6184Z" fill="#F5F9F0"/>
<path d="M202.224 65C206.82 65 210.233 63.1198 212.461 60.961V64.5822H220.121V19.4323L212.461 15V33.3844C210.302 31.0167 206.542 29.3454 202.224 29.3454C191.848 29.3454 184.954 36.3092 184.954 47.1727C184.954 58.0362 191.848 65 202.224 65ZM202.572 57.6184C196.514 57.6184 192.475 53.1616 192.475 47.1727C192.475 41.1838 196.514 36.727 202.572 36.727C208.631 36.727 212.6 41.1838 212.6 47.1727C212.6 53.1616 208.631 57.6184 202.572 57.6184Z" fill="#F5F9F0"/>
<path d="M242.925 65C250.794 65 257.549 60.7521 259.917 54.415H250.794C249.332 56.6435 246.477 57.7577 242.925 57.7577C237.911 57.7577 233.942 54.2061 233.106 49.8189H260.196C260.335 48.9833 260.404 48.078 260.404 47.1727C260.404 37.2841 252.605 29.3454 242.716 29.3454C232.828 29.3454 225.028 37.2841 225.028 47.1727C225.028 57.0613 232.828 65 242.925 65ZM233.385 43.273C234.43 39.234 238.19 36.4485 242.716 36.4485C247.243 36.4485 251.003 39.234 252.048 43.273H233.385Z" fill="#F5F9F0"/>
<path d="M272.932 64.5822V19.4323L265.271 15V64.5822H272.932Z" fill="#F5F9F0"/>
<path d="M315.513 64.5822V57.2006H287.17L312.379 22.3816V15.8357H280.276V23.2173H302.769L277.56 58.0362V64.5822H315.513Z" fill="#F5F9F0"/>
<path d="M46.7297 10.3735C47.3484 10.0162 48.1108 10.0162 48.7295 10.3735L77.5457 27.009C78.2124 27.3939 78.2124 28.3562 77.5457 28.7411L55.5509 41.4387C54.8842 41.8236 54.8842 42.7859 55.5509 43.1708L70.7742 51.9592C71.4409 52.3441 71.4409 53.3064 70.7742 53.6913L55.56 62.4744C54.9413 62.8316 54.1789 62.8316 53.5602 62.4744L23.1896 44.9415C22.5229 44.5566 22.5229 43.5943 23.1896 43.2094L39.3988 33.8519C39.4008 33.8507 39.4031 33.8501 39.4055 33.8501C39.4079 33.8501 39.4102 33.8494 39.4123 33.8483L45.188 30.5139C45.8547 30.129 45.8547 29.1667 45.188 28.7818L31.5155 20.8887C30.8488 20.5038 30.8488 19.5415 31.5155 19.1566L46.7297 10.3735Z" fill="#E6DB3D"/>
<path d="M13.3318 0.134828C12.4902 -0.342652 11.5287 0.534279 11.9269 1.41612L25.5205 31.7347C25.7569 32.2581 25.5048 32.8726 24.9691 33.0793L2.10739 44.2848C1.30114 44.5959 1.2424 45.7141 2.01163 46.1079L67.905 79.8419C68.7825 80.2912 69.712 79.3338 69.2369 78.4699L60.7803 63.0914C60.5103 62.6003 59.8894 62.427 59.4041 62.7072L55.033 65.2306C54.7236 65.4092 54.3424 65.4092 54.033 65.2306L18.8882 44.9415C18.2215 44.5566 18.2215 43.5943 18.8882 43.2094L35.1004 33.8501H35.1042H35.1079L40.8867 30.5141C41.5534 30.1292 41.5534 29.1669 40.8867 28.782L27.2141 20.8888C26.5474 20.5039 26.5474 19.5416 27.2141 19.1567L35.4376 14.4093C36.1072 14.0227 36.1036 13.055 35.4312 12.6735L13.3318 0.134828Z" fill="#F5F9F0"/>
</svg>
